# xmcd
#
# Track frame offsets:
#	150
#	18810
#	34041
#	54147
#	71130
#	85542
#	100404
#	114327
#	130434
#	146875
#	163513
#	179791
#	194272
#
# Disc length: 2801 seconds
#
# Revision: 1
# Processed by: cddbd v1.5.2PL0 Copyright (c) Steve Scherf et al.
# Submitted via: audiograbber 1.83.01
#
DISCID=b00aef0d
DTITLE=Little Big Town - Nightfall
DYEAR=2020
DGENRE=Country
TTITLE0=Next To You
TTITLE1=Nightfall
TTITLE2=Forever And A Night
TTITLE3=Throw Your Love Away
TTITLE4=Over Drinking
TTITLE5=Wine, Beer, Whiskey
TTITLE6=Questions
TTITLE7=The Daughters
TTITLE8=River Of Stars
TTITLE9=Sugar Coat
TTITLE10=Problem Child
TTITLE11=Bluebird
TTITLE12=Trouble With Forever
EXTD=
EXTT0=
EXTT1=
EXTT2=
EXTT3=
EXTT4=
EXTT5=
EXTT6=
EXTT7=
EXTT8=
EXTT9=
EXTT10=
EXTT11=
EXTT12=
PLAYORDER=
